<svg width="120" height="120" viewBox="0 0 120 120" fill="none" xmlns="http://www.w3.org/2000/svg">
  <!-- 背景圆形 -->
  <circle cx="60" cy="60" r="60" fill="#FCE4EC"/>
  
  <!-- 头部 -->
  <circle cx="60" cy="50" r="25" fill="#FFB74D"/>
  
  <!-- 身体 -->
  <path d="M35 80 Q60 100 85 80 L85 120 L35 120 Z" fill="#E91E63"/>
  
  <!-- 眼睛 -->
  <circle cx="52" cy="45" r="3" fill="#333"/>
  <circle cx="68" cy="45" r="3" fill="#333"/>
  
  <!-- 嘴巴 -->
  <path d="M55 55 Q60 58 65 55" stroke="#333" stroke-width="2" fill="none" stroke-linecap="round"/>
  
  <!-- 头发 -->
  <path d="M35 30 Q60 15 85 30 Q80 45 75 40 Q70 35 65 40 Q60 35 55 40 Q50 35 45 40 Q40 35 35 40 Z" fill="#8D6E63"/>
  
  <!-- 发饰 -->
  <circle cx="45" cy="35" r="4" fill="#FFC107"/>
  <circle cx="75" cy="35" r="4" fill="#FFC107"/>
  
  <!-- 装饰 -->
  <circle cx="60" cy="95" r="8" fill="#FFC107"/>
  <circle cx="60" cy="95" r="4" fill="#FF9800"/>
</svg>
