<svg width="120" height="120" viewBox="0 0 120 120" fill="none" xmlns="http://www.w3.org/2000/svg">
  <!-- 背景圆形 -->
  <circle cx="60" cy="60" r="60" fill="#E3F2FD"/>
  
  <!-- 头部 -->
  <circle cx="60" cy="50" r="25" fill="#FFB74D"/>
  
  <!-- 身体 -->
  <path d="M35 80 Q60 100 85 80 L85 120 L35 120 Z" fill="#2196F3"/>
  
  <!-- 眼睛 -->
  <circle cx="52" cy="45" r="3" fill="#333"/>
  <circle cx="68" cy="45" r="3" fill="#333"/>
  
  <!-- 嘴巴 -->
  <path d="M55 55 Q60 60 65 55" stroke="#333" stroke-width="2" fill="none" stroke-linecap="round"/>
  
  <!-- 头发 -->
  <path d="M35 30 Q60 20 85 30 Q80 40 75 35 Q70 30 65 35 Q60 30 55 35 Q50 30 45 35 Q40 30 35 35 Z" fill="#8D6E63"/>
  
  <!-- 装饰 -->
  <circle cx="60" cy="95" r="8" fill="#FFC107"/>
  <circle cx="60" cy="95" r="4" fill="#FF9800"/>
</svg>
